# xmcd CD database file
#
# Track frame offsets:
#	150
#	21286
#	38837
#	56340
#	73035
#	95500
#	110483
#	129797
#	143787
#	165289
#	182353
#	195599
#
# Disc length: 2929 seconds
#
# Revision: 1
# Processed by: cddbd v1.5PL3 Copyright (c) Steve Scherf et al.
# Submitted via: CDex 1.51
#
DISCID=950b6f0c
DTITLE=Shane Howard - I'll Never Find What I'm Looking For
DYEAR=2004
DGENRE=Country
TTITLE0=I'll Never Find What I'm Looking For
TTITLE1=If You Fail At Love
TTITLE2=Love Me Again
TTITLE3=Lick It, Slam It, Suck It
TTITLE4=I'm Over You
TTITLE5=Hang On To Yesterday
TTITLE6=I Can't Take It Anymore
TTITLE7=Man In The Mirror
TTITLE8=Don't Give A Damn
TTITLE9=Megan's Song
TTITLE10=Set Me Free
TTITLE11=Hero In Us All
EXTD=YEAR: 2004
EXTT0=
EXTT1=
EXTT2=
EXTT3=
EXTT4=
EXTT5=
EXTT6=
EXTT7=
EXTT8=
EXTT9=
EXTT10=
EXTT11=
PLAYORDER=
